<svg id="Layer_1" data-name="Layer 1" xmlns="http://www.w3.org/2000/svg" viewBox="0 0 324 349"><defs><style>.cls-1{fill:#7d93aa;}.cls-2{fill:#e9c500;}.cls-3{fill:#fff;}</style></defs><path class="cls-1" d="M175,98c-5.51,1.86-8.57,6.46-10.51,15.72-.43,2.29-1,4-1.42,4.22s-1.94,1.42-3.57,2.72a30.53,30.53,0,0,0-9.95,14.08c-2.72,7.06-6.68,11.07-17.31,17.57-15.38,9.39-21.8,14.81-29.12,24.63-9.69,13-15.76,30.19-17.44,49.22-.26,3.06-.56,5.69-.64,5.78-.39.43-3.75-3.92-5.3-6.85-4.18-7.88-3.92-16.93.77-29.37a115.52,115.52,0,0,1,10.9-21.06c4-6.07,4.39-7.54,2.33-9.26-2.55-2.2-4.1-1.21-8.36,5.3C77.37,183,71.86,196,70.22,206.24c-.77,4.82-.34,13.13.86,16.71a33.74,33.74,0,0,0,12,16.75l3,2.19.26,3.32a55.15,55.15,0,0,0,1.8,10.12c.26.69,0,.77-2,.77a43.38,43.38,0,0,1-6-.6C65.61,253.13,56.7,244.82,54,231.21a63.41,63.41,0,0,1-.17-16.71c1.16-7.32,3.87-15.71,9.77-30.31,5.08-12.49,6.29-16.07,7.5-21.84s1-12.83-.39-16.49c-2.24-5.64-6.42-9.65-12.71-12.06-4.65-1.85-6.28-2-7.57-1-1,.82-1,.9-1.08,9.86l0,9L48,154A14.4,14.4,0,0,1,39.52,161c-2.76.82-3.32.86-5.64.39-6.16-1.3-10-4.78-12.36-11.5-1.43-3.88-1.34-10.3.21-15.46,5.73-19.17,27.05-32,47.24-28.43,14.56,2.55,26.27,11.5,33.29,25.5a45.13,45.13,0,0,1,4.14,15.07c.51,5.13.94,5.94,3.31,6.42,1.9.39,4-1.64,4-3.88A77.5,77.5,0,0,0,112.21,138c-2-9.13-8.61-20-16.19-26.66a49.05,49.05,0,0,0-18.22-10.5,45.94,45.94,0,0,0-16.19-2.54,49.51,49.51,0,0,0-36,15.76,46.61,46.61,0,0,0-11.54,21.53c-4.18,17.57,7.41,34.06,23.17,32.94,12-.86,20.32-11.06,19.51-23.85a9.69,9.69,0,0,1,.08-3.36c.52-.35,4.14,2.24,5.3,3.7,2.45,3.32,2.67,4.14,2.63,9.43,0,6.63-1.12,10.47-7.07,25.2-9,22.52-11.62,32.25-11.62,43.58,0,16.4,7.32,29.19,20.32,35.52,5.39,2.59,15,4.61,22.18,4.66h3.1L93,265.32c3,4.39,9.65,9,15.55,10.81a42.14,42.14,0,0,0,7.11,1.08c5.51.43,67.74.56,68.38.13.26-.13.3,0,.13.21s.13.52,1,.52,1.34-.22,1.34-.43.64-.43,1.42-.43a11.72,11.72,0,0,0,6.46-2.93,12.45,12.45,0,0,0-.39-17.74c-3-3.19-6.2-4.44-11.89-4.66a30.36,30.36,0,0,1-4.65-.34c0-.09.78-1.33,1.68-2.76a40.24,40.24,0,0,0,5.26-13.26,46,46,0,0,0-.61-19.38l-1-3.57,2.84.25c6.85.65,10.38-1.29,21.79-12,6.89-6.46,9-8.23,11-9.31a7.66,7.66,0,0,1,7.32.26c5.12,2.93,6.33,3.32,9.34,3.15,5.86-.3,9.26-4.48,9.31-11.33,0-3.19-.09-3.7-1.77-7.1-3.92-8.06-9.35-11.29-19-11.24a21.71,21.71,0,0,1-4.43-.22,43.85,43.85,0,0,1,3.14-3.14c4.39-4.18,8.1-9.43,8.4-11.89s-1.17-5.51-6.38-13.69c-4.95-7.84-7-10.43-10.85-13.66C208.46,118.43,198.47,114,194,114c-1.16,0-1.55-.52-2.32-2.8-2.28-6.8-6.59-12.06-10.77-13.09C177.75,97.28,177.19,97.28,175,98Zm4.13,7.15c2.63,1.34,4.57,4.52,6.68,11l1.38,4,3.61.52c5.52.77,7.58,1.38,11.93,3.49,6.72,3.27,10.25,7.15,18.22,20,2.15,3.45,2.88,5,2.58,5.47-1.07,2-6.41,7.58-9.56,9.95-5.12,3.88-9.43,5.73-17.57,7.54l-4.09.9-2.67-2.8-2.71-2.84-2.16,2.37c-1.2,1.29-2.11,2.54-2,2.8.18.51,11,15.72,11.2,15.72s1.64-.87,3.53-1.94c17.18-9.82,29.89-11.89,36-5.82a13.55,13.55,0,0,1,3.83,8.66c0,1.89-1.46,3.83-2.88,3.83a13.83,13.83,0,0,1-3.79-1.76c-6-3.53-11.41-3.75-16.45-.74-2.29,1.34-4,2.85-15.94,13.87-5.85,5.38-8,6.5-12,6.16-3.58-.26-7.06-2-13.44-6.76-2.93-2.11-5.34-3.88-5.42-3.88a43.15,43.15,0,0,0-3.71,6.33,13.65,13.65,0,0,0,2.89,2.29c4.3,2.92,6.41,5.25,8.31,9.17a33.16,33.16,0,0,1,3.06,14.81A32.13,32.13,0,0,1,167.25,252c-2.16,1.9-2.46,3.7-.95,5.6l.86,1.12,8.27,0c8.53,0,10.08.26,12.62,2.11a7.86,7.86,0,0,1,2.75,4.87,5.06,5.06,0,0,1-2.45,4.13c-.73.35-12,.48-36.78.48-39.79,0-39.75,0-45.26-2.89s-10-8.83-11.76-15.85c-2.06-8-2.49-20.67-1.07-30.57,1.68-11.29,3.92-18.78,8.61-28.43a64.31,64.31,0,0,1,10.64-16.14c6.07-6.72,9.34-9.18,26.7-20.25,5.81-3.7,11.54-9.08,14-13.13a47.68,47.68,0,0,0,2.89-5.94,25.5,25.5,0,0,1,11.54-13.61c2.5-1.42,2.71-1.68,2.71-3.06a47,47,0,0,1,2.59-11.11c1.2-2.67,2.88-4.44,4.65-4.78A5.42,5.42,0,0,1,179.13,105.16Z"/><path class="cls-1" d="M195.76,132a5.39,5.39,0,0,0-3.23,5.29,5.69,5.69,0,0,0,9.9,4C206.91,136.73,201.61,129.32,195.76,132Z"/><circle class="cls-2" cx="263.88" cy="232.32" r="45.75"/><rect class="cls-3" x="241.26" y="209.7" width="45.24" height="45.24" rx="8" transform="translate(283.38 -118.72) rotate(51.82)"/></svg>